<svg xmlns="http://www.w3.org/2000/svg" width="96" height="96" viewBox="0 0 96 96">
  <defs>
    <linearGradient id="bg" x1="0" y1="0" x2="1" y2="1">
      <stop offset="0%" stop-color="#ff4d6d"></stop>
      <stop offset="100%" stop-color="#7c4dff"></stop>
    </linearGradient>
  </defs>

  <!-- Fondo -->
  <rect x="8" y="8" width="80" height="80" rx="18" fill="url(#bg)"></rect>

  <!-- Bandana -->
  <rect x="18" y="26" width="60" height="14" rx="6" fill="#1e1e2f"></rect>
  <rect x="32" y="28" width="32" height="10" rx="4" fill="#cfcfd6"></rect>

  <!-- Símbolo estilo Konoha (simplificado) -->
  <path d="M48 33
           c-6 0-10 4-10 8
           c0 3 2 5 6 5
           c3 0 5-2 5-4
           c0-2-2-3-4-3" fill="none" stroke="#1e1e2f" stroke-width="2" stroke-linecap="round"></path>

  <!-- Ojos -->
  <circle cx="38" cy="48" r="4" fill="#ffffff"></circle>
  <circle cx="58" cy="48" r="4" fill="#ffffff"></circle>

  <!-- Sonrisa -->
  <path d="M36 60
           c6 6 18 6 24 0" fill="none" stroke="#ffffff" stroke-width="4" stroke-linecap="round"></path>
</svg>
